<?xml version="1.0" standalone="no"?>
<!DOCTYPE svg PUBLIC "-//W3C//DTD SVG 20010904//EN"
 "http://www.w3.org/TR/2001/REC-SVG-20010904/DTD/svg10.dtd">
<svg version="1.0" xmlns="http://www.w3.org/2000/svg"
 width="150.000000pt" height="150.000000pt" viewBox="0 0 150.000000 150.000000"
 preserveAspectRatio="xMidYMid meet">
<metadata>
Created by potrace 1.14, written by Peter Selinger 2001-2017
</metadata>
<g transform="translate(0.000000,150.000000) scale(0.100000,-0.100000)"
fill="#000000" stroke="none">
<path d="M0 750 l0 -750 750 0 750 0 0 750 0 750 -750 0 -750 0 0 -750z m900
389 c101 -16 238 -66 317 -115 315 -196 281 -540 -70 -708 -143 -69 -203 -81
-402 -81 -147 0 -181 3 -250 23 -185 53 -331 154 -396 274 -32 58 -34 69 -34
153 0 79 4 97 29 150 70 144 255 260 479 300 89 16 241 18 327 4z"/>
<path d="M595 1064 c-11 -3 -47 -12 -79 -20 -33 -8 -87 -27 -120 -42 l-61 -27
210 -5 210 -5 -1 -25 c0 -14 -4 -35 -8 -47 -6 -20 -4 -23 16 -23 49 0 53 -11
30 -96 -12 -43 -21 -79 -19 -80 1 -1 90 38 197 87 173 79 202 89 255 89 l60 1
-49 44 c-58 52 -145 97 -241 126 -55 17 -103 22 -225 25 -85 1 -164 1 -175 -2z"/>
<path d="M246 848 c-13 -49 -19 -48 214 -48 201 0 221 2 227 18 3 9 13 25 21
35 14 16 3 17 -220 17 l-236 0 -6 -22z"/>
<path d="M1088 732 c-114 -53 -204 -100 -200 -104 19 -18 305 -188 316 -188 8
0 39 27 70 60 86 94 107 195 59 294 -9 20 -21 36 -27 35 -6 0 -104 -44 -218
-97z"/>
<path d="M202 678 l-8 -33 220 -3 c121 -1 223 1 227 5 3 5 9 20 13 36 l6 27
-225 0 -224 0 -9 -32z"/>
<path d="M736 562 c-2 -4 -12 -36 -21 -72 -9 -36 -21 -71 -27 -77 -6 -7 -30
-13 -53 -13 -52 0 -57 10 -39 70 8 25 14 51 14 58 0 9 -49 12 -210 12 -119 0
-210 -4 -210 -9 0 -15 101 -101 155 -132 124 -72 332 -110 498 -90 95 11 228
48 277 76 24 14 23 14 -30 15 -50 0 -65 6 -196 85 -79 47 -145 85 -148 85 -2
0 -7 -3 -10 -8z"/>
</g>
</svg>
